<svg width="120" height="40" viewBox="0 0 120 40" fill="none" xmlns="http://www.w3.org/2000/svg">
<g clip-path="url(#clip0_28_2)">
<path d="M110.135 0H9.53501C9.16801 0 8.80501 0 8.44001 0.002C8.13401 0.004 7.83001 0.01 7.52101 0.015C6.84953 0.0223323 6.17959 0.0808351 5.51701 0.19C4.85573 0.302207 4.21518 0.513588 3.61701 0.817C3.01872 1.12335 2.4721 1.52151 1.99701 1.997C1.52026 2.47032 1.12284 3.01732 0.820007 3.617C0.516085 4.21585 0.305326 4.85757 0.195007 5.52C0.083735 6.18171 0.0238894 6.85105 0.0160071 7.522C0.00600708 7.829 0.00600708 8.137 0.00100708 8.443V31.56C0.00600708 31.87 0.00700708 32.17 0.0160071 32.481C0.0242159 33.152 0.0843959 33.8213 0.196007 34.483C0.305615 35.1461 0.51605 35.7885 0.820007 36.388C1.12313 36.9854 1.52094 37.5297 1.99801 38C2.47076 38.4771 3.01704 38.8751 3.61601 39.179C4.21453 39.4831 4.85536 39.6954 5.51701 39.809C6.17965 39.9179 6.84953 39.9771 7.52101 39.986C7.83101 39.993 8.13401 39.997 8.44001 39.997C8.80601 39.999 9.16801 39.999 9.53501 39.999H110.135C110.495 39.999 110.859 39.999 111.219 39.997C111.523 39.997 111.836 39.993 112.141 39.987C112.811 39.9782 113.48 39.9187 114.141 39.809C114.805 39.6946 115.448 39.4823 116.049 39.179C116.648 38.875 117.194 38.4769 117.666 38C118.142 37.5273 118.541 36.9827 118.848 36.386C119.15 35.7862 119.359 35.1438 119.467 34.481C119.578 33.8192 119.64 33.15 119.652 32.479C119.656 32.169 119.656 31.869 119.656 31.558C119.664 31.194 119.664 30.833 119.664 30.464V9.536C119.664 9.17 119.664 8.806 119.656 8.444C119.656 8.138 119.656 7.83 119.652 7.524C119.64 6.85266 119.578 6.18314 119.467 5.521C119.358 4.8589 119.149 4.21723 118.847 3.618C118.23 2.41511 117.251 1.43588 116.049 0.818C115.448 0.515273 114.805 0.303946 114.141 0.191C113.48 0.0810377 112.811 0.0221968 112.141 0.015C111.836 0.01 111.523 0.004 111.219 0.002C110.859 0 110.494 0 110.135 0V0Z" fill="#A6A6A6"/>
<path d="M8.44499 39.125C8.13999 39.125 7.84299 39.121 7.54099 39.115C6.91446 39.1066 6.28941 39.0518 5.67099 38.951C5.09483 38.8516 4.53669 38.6669 4.01499 38.403C3.49787 38.1414 3.02619 37.7984 2.61799 37.387C2.20405 36.9801 1.8595 36.5082 1.59799 35.99C1.33305 35.4687 1.14959 34.9099 1.05399 34.333C0.95128 33.7131 0.895787 33.0863 0.887986 32.458C0.880986 32.248 0.872986 31.545 0.872986 31.545V8.445C0.872986 8.445 0.881986 7.753 0.887986 7.55C0.895438 6.92272 0.950598 6.29691 1.05299 5.678C1.1486 5.09952 1.33205 4.53905 1.59699 4.016C1.8577 3.4983 2.20046 3.0262 2.61199 2.618C3.02294 2.20578 3.49603 1.86058 4.01399 1.595C4.53463 1.33189 5.09185 1.14851 5.66699 1.051C6.28735 0.949562 6.91443 0.894742 7.54299 0.887L8.44499 0.875H111.214L112.127 0.888C112.75 0.895224 113.371 0.949378 113.985 1.05C114.566 1.14872 115.129 1.33341 115.656 1.598C116.694 2.13288 117.538 2.97908 118.071 4.018C118.331 4.53755 118.512 5.0935 118.606 5.667C118.71 6.29093 118.768 6.9216 118.78 7.554C118.783 7.837 118.783 8.142 118.783 8.444C118.791 8.819 118.791 9.176 118.791 9.536V30.465C118.791 30.828 118.791 31.183 118.783 31.54C118.783 31.865 118.783 32.163 118.779 32.47C118.768 33.091 118.711 33.7103 118.609 34.323C118.516 34.9041 118.334 35.4673 118.069 35.993C117.805 36.5056 117.462 36.9733 117.053 37.379C116.644 37.7927 116.172 38.1377 115.653 38.401C115.128 38.6671 114.565 38.8525 113.985 38.951C113.367 39.0519 112.742 39.1064 112.116 39.114C111.823 39.121 111.516 39.125 111.219 39.125L110.135 39.127L8.44499 39.125Z" fill="white"/>
<path d="M24.769 20.3C24.7799 19.4656 25.0016 18.6475 25.4135 17.9217C25.8254 17.196 26.4142 16.5862 27.125 16.149C26.6734 15.504 26.0776 14.9731 25.385 14.5985C24.6924 14.2239 23.922 14.0159 23.135 13.991C21.455 13.815 19.827 14.996 18.971 14.996C18.099 14.996 16.781 14.008 15.363 14.038C14.4453 14.0676 13.5509 14.3345 12.767 14.8126C11.9831 15.2906 11.3364 15.9637 10.89 16.766C8.95599 20.114 10.399 25.035 12.251 27.742C13.178 29.067 14.261 30.547 15.679 30.495C17.066 30.437 17.584 29.61 19.259 29.61C20.917 29.61 21.403 30.495 22.849 30.462C24.338 30.437 25.275 29.13 26.169 27.792C26.8355 26.8479 27.3485 25.8043 27.689 24.7C26.824 24.3343 26.0858 23.7221 25.5666 22.9396C25.0473 22.1571 24.7699 21.2391 24.769 20.3ZM22.037 12.21C22.8486 11.236 23.2486 9.9841 23.152 8.72C21.9119 8.85018 20.7665 9.4429 19.944 10.38C19.542 10.8375 19.234 11.3697 19.0377 11.9462C18.8414 12.5227 18.7606 13.1323 18.8 13.74C19.4201 13.7464 20.0336 13.612 20.5943 13.347C21.155 13.082 21.6483 12.6932 22.037 12.21Z" fill="#1F1F1F"/>
<path d="M42.302 27.14H37.57L36.433 30.496H34.428L38.912 18.078H40.995L45.478 30.496H43.439L42.302 27.14ZM38.059 25.59H41.811L39.961 20.144H39.91L38.059 25.59ZM55.16 25.97C55.16 28.783 53.654 30.59 51.381 30.59C50.8055 30.62 50.2333 30.4875 49.7296 30.2075C49.226 29.9276 48.8113 29.5115 48.533 29.007H48.49V33.491H46.63V21.442H48.43V22.948H48.463C48.7541 22.4456 49.1759 22.0316 49.6835 21.7498C50.1912 21.4681 50.7657 21.3292 51.346 21.348C53.644 21.348 55.159 23.164 55.159 25.97H55.16ZM53.25 25.97C53.25 24.137 52.302 22.932 50.857 22.932C49.437 22.932 48.482 24.162 48.482 25.97C48.482 27.794 49.437 29.016 50.857 29.016C52.302 29.016 53.25 27.819 53.25 25.97ZM65.125 25.97C65.125 28.783 63.619 30.59 61.346 30.59C60.7705 30.62 60.1983 30.4875 59.6946 30.2075C59.191 29.9276 58.7763 29.5115 58.498 29.007H58.455V33.491H56.596V21.442H58.395V22.948H58.429C58.7201 22.4456 59.1419 22.0316 59.6495 21.7498C60.1572 21.4681 60.7317 21.3292 61.312 21.348C63.61 21.348 65.125 23.164 65.125 25.97ZM63.215 25.97C63.215 24.137 62.267 22.932 60.822 22.932C59.402 22.932 58.447 24.162 58.447 25.97C58.447 27.794 59.402 29.016 60.822 29.016C62.267 29.016 63.214 27.819 63.214 25.97H63.215ZM71.71 27.036C71.848 28.268 73.044 29.076 74.68 29.076C76.246 29.076 77.373 28.268 77.373 27.157C77.373 26.193 76.693 25.617 75.083 25.221L73.474 24.833C71.194 24.283 70.135 23.216 70.135 21.485C70.135 19.343 72.002 17.871 74.654 17.871C77.278 17.871 79.077 19.343 79.137 21.485H77.261C77.149 20.246 76.125 19.498 74.627 19.498C73.129 19.498 72.106 20.255 72.106 21.356C72.106 22.234 72.76 22.751 74.361 23.146L75.729 23.482C78.277 24.085 79.335 25.108 79.335 26.925C79.335 29.248 77.485 30.703 74.542 30.703C71.788 30.703 69.928 29.283 69.808 27.036H71.71ZM83.346 19.3V21.442H85.068V22.914H83.346V27.905C83.346 28.681 83.691 29.042 84.448 29.042C84.6523 29.0384 84.8562 29.0241 85.059 28.999V30.462C84.7188 30.5256 84.373 30.5544 84.027 30.548C82.194 30.548 81.479 29.859 81.479 28.103V22.914H80.163V21.442H81.479V19.3H83.346ZM86.065 25.97C86.065 23.121 87.743 21.331 90.359 21.331C92.984 21.331 94.654 23.121 94.654 25.97C94.654 28.826 92.993 30.608 90.359 30.608C87.726 30.608 86.065 28.826 86.065 25.97ZM92.76 25.97C92.76 24.016 91.865 22.862 90.359 22.862C88.853 22.862 87.959 24.024 87.959 25.97C87.959 27.932 88.853 29.076 90.359 29.076C91.865 29.076 92.76 27.932 92.76 25.97ZM96.186 21.442H97.959V22.983H98.002C98.1221 22.502 98.404 22.077 98.8004 21.7793C99.1968 21.4816 99.6836 21.3293 100.179 21.348C100.393 21.3471 100.607 21.3703 100.816 21.417V23.155C100.546 23.0725 100.264 23.0347 99.981 23.043C99.711 23.032 99.4418 23.0796 99.1919 23.1825C98.9421 23.2854 98.7174 23.4411 98.5334 23.639C98.3494 23.8369 98.2104 24.0722 98.1259 24.3289C98.0414 24.5856 98.0135 24.8575 98.044 25.126V30.496H96.186V21.442ZM109.384 27.837C109.134 29.48 107.534 30.608 105.486 30.608C102.852 30.608 101.217 28.844 101.217 26.013C101.217 23.173 102.861 21.331 105.407 21.331C107.913 21.331 109.487 23.051 109.487 25.797V26.434H103.093V26.546C103.064 26.8792 103.105 27.2149 103.216 27.5307C103.326 27.8465 103.502 28.1352 103.732 28.3778C103.963 28.6203 104.242 28.811 104.552 28.9372C104.862 29.0635 105.195 29.1224 105.529 29.11C105.968 29.1511 106.408 29.0493 106.785 28.82C107.162 28.5906 107.454 28.2459 107.619 27.837H109.384ZM103.102 25.135H107.628C107.645 24.8354 107.599 24.5357 107.495 24.2545C107.39 23.9733 107.229 23.7167 107.02 23.5009C106.812 23.2852 106.561 23.1148 106.283 23.0005C106.006 22.8863 105.708 22.8306 105.408 22.837C105.105 22.8352 104.805 22.8933 104.525 23.008C104.245 23.1227 103.99 23.2918 103.776 23.5055C103.562 23.7191 103.392 23.9731 103.276 24.2528C103.16 24.5325 103.101 24.8323 103.102 25.135Z" fill="#1F1F1F"/>
<path d="M37.826 8.731C38.2156 8.70304 38.6066 8.7619 38.9708 8.90334C39.3349 9.04478 39.6631 9.26527 39.9317 9.5489C40.2004 9.83254 40.4027 10.1723 40.5241 10.5435C40.6456 10.9148 40.6831 11.3084 40.634 11.696C40.634 13.602 39.604 14.698 37.826 14.698H35.671V8.73L37.826 8.731ZM36.598 13.854H37.723C38.0013 13.8705 38.2798 13.8247 38.5383 13.7201C38.7967 13.6154 39.0286 13.4544 39.217 13.2489C39.4054 13.0433 39.5456 12.7984 39.6274 12.5318C39.7092 12.2653 39.7306 11.9838 39.69 11.708C39.7277 11.4332 39.7042 11.1535 39.6211 10.8889C39.5381 10.6242 39.3975 10.3812 39.2096 10.1773C39.0216 9.97336 38.7908 9.81351 38.5338 9.70921C38.2768 9.60491 37.9999 9.55874 37.723 9.574H36.598V13.854ZM41.68 12.444C41.6528 12.1486 41.6875 11.8508 41.7818 11.5696C41.8762 11.2884 42.0282 11.03 42.228 10.8109C42.4279 10.5917 42.6713 10.4167 42.9427 10.2969C43.214 10.1771 43.5074 10.1153 43.804 10.1153C44.1006 10.1153 44.394 10.1771 44.6653 10.2969C44.9367 10.4167 45.1801 10.5917 45.3799 10.8109C45.5798 11.03 45.7318 11.2884 45.8262 11.5696C45.9205 11.8508 45.9552 12.1486 45.928 12.444C45.9575 12.7406 45.9246 13.0401 45.8313 13.3232C45.738 13.6063 45.5865 13.8667 45.3864 14.0877C45.1864 14.3087 44.9423 14.4853 44.6698 14.6061C44.3973 14.727 44.1026 14.7894 43.8045 14.7894C43.5064 14.7894 43.2116 14.727 42.9392 14.6061C42.6667 14.4853 42.4226 14.3087 42.2225 14.0877C42.0225 13.8667 41.8709 13.6063 41.7777 13.3232C41.6844 13.0401 41.6515 12.7406 41.681 12.444H41.68ZM45.014 12.444C45.014 11.468 44.575 10.897 43.806 10.897C43.033 10.897 42.599 11.468 42.599 12.444C42.599 13.428 43.033 13.994 43.806 13.994C44.576 13.994 45.014 13.424 45.014 12.444ZM51.573 14.698H50.651L49.721 11.381H49.651L48.724 14.698H47.811L46.569 10.195H47.471L48.277 13.631H48.344L49.27 10.195H50.122L51.048 13.631H51.118L51.921 10.195H52.81L51.573 14.698ZM53.854 10.195H54.709V10.91H54.775C54.8877 10.6531 55.0778 10.4377 55.3187 10.294C55.5596 10.1502 55.8394 10.0852 56.119 10.108C56.3381 10.0915 56.5581 10.1246 56.7628 10.2047C56.9674 10.2848 57.1514 10.4099 57.3011 10.5708C57.4508 10.7316 57.5624 10.9241 57.6277 11.1339C57.6929 11.3438 57.7101 11.5656 57.678 11.783V14.698H56.789V12.006C56.789 11.282 56.475 10.922 55.817 10.922C55.6683 10.9151 55.5198 10.9405 55.3818 10.9963C55.2438 11.0521 55.1194 11.1372 55.0173 11.2455C54.9153 11.3539 54.8378 11.483 54.7903 11.6241C54.7427 11.7652 54.7263 11.9149 54.742 12.063V14.698H53.854V10.195ZM59.094 8.437H59.982V14.697H59.094V8.437ZM61.218 12.444C61.19 12.1483 61.2241 11.8499 61.318 11.5681C61.412 11.2863 61.5638 11.0272 61.7637 10.8075C61.9636 10.5878 62.2073 10.4122 62.4789 10.2921C62.7506 10.172 63.0444 10.1099 63.3415 10.1099C63.6386 10.1099 63.9323 10.172 64.204 10.2921C64.4757 10.4122 64.7193 10.5878 64.9192 10.8075C65.1191 11.0272 65.271 11.2863 65.3649 11.5681C65.4589 11.8499 65.493 12.1483 65.465 12.444C65.4945 12.7406 65.4616 13.0401 65.3683 13.3232C65.275 13.6063 65.1235 13.8667 64.9234 14.0877C64.7234 14.3087 64.4793 14.4853 64.2068 14.6061C63.9343 14.727 63.6396 14.7894 63.3415 14.7894C63.0434 14.7894 62.7487 14.727 62.4762 14.6061C62.2037 14.4853 61.9596 14.3087 61.7595 14.0877C61.5595 13.8667 61.4079 13.6063 61.3147 13.3232C61.2214 13.0401 61.1885 12.7406 61.218 12.444ZM64.551 12.444C64.551 11.468 64.112 10.897 63.343 10.897C62.57 10.897 62.136 11.468 62.136 12.444C62.136 13.428 62.57 13.994 63.343 13.994C64.113 13.994 64.551 13.424 64.551 12.444ZM66.4 13.424C66.4 12.614 67.004 12.146 68.076 12.08L69.296 12.01V11.621C69.296 11.146 68.981 10.877 68.374 10.877C67.877 10.877 67.534 11.059 67.435 11.377H66.575C66.665 10.604 67.393 10.107 68.415 10.107C69.543 10.107 70.18 10.67 70.18 11.621V14.698H69.325V14.065H69.255C69.1122 14.2921 68.9118 14.4772 68.674 14.6014C68.4363 14.7256 68.1699 14.7845 67.902 14.772C67.7129 14.7917 67.5218 14.7716 67.341 14.7129C67.1602 14.6542 66.9937 14.5582 66.8523 14.4312C66.7108 14.3042 66.5976 14.1489 66.5199 13.9754C66.4421 13.8019 66.4016 13.6141 66.401 13.424H66.4ZM69.295 13.04V12.663L68.195 12.733C67.575 12.775 67.295 12.986 67.295 13.383C67.295 13.788 67.646 14.023 68.129 14.023C68.2705 14.0373 68.4135 14.023 68.5494 13.9809C68.6852 13.9389 68.8113 13.87 68.9201 13.7783C69.0288 13.6866 69.118 13.574 69.1825 13.4472C69.2469 13.3204 69.2851 13.1819 69.295 13.04ZM71.348 12.444C71.348 11.021 72.08 10.12 73.218 10.12C73.4993 10.1072 73.7784 10.1747 74.0227 10.3146C74.2671 10.4544 74.4666 10.661 74.598 10.91H74.665V8.437H75.553V14.697H74.702V13.987H74.632C74.4902 14.2345 74.2834 14.4385 74.034 14.5769C73.7846 14.7152 73.502 14.7827 73.217 14.772C72.072 14.772 71.348 13.871 71.348 12.444ZM72.266 12.444C72.266 13.399 72.716 13.974 73.469 13.974C74.219 13.974 74.681 13.391 74.681 12.448C74.681 11.51 74.213 10.918 73.469 10.918C72.721 10.918 72.266 11.498 72.266 12.444ZM79.23 12.444C79.202 12.1483 79.2361 11.8499 79.33 11.5681C79.424 11.2863 79.5758 11.0272 79.7757 10.8075C79.9756 10.5878 80.2192 10.4122 80.4909 10.2921C80.7626 10.172 81.0564 10.1099 81.3535 10.1099C81.6506 10.1099 81.9443 10.172 82.216 10.2921C82.4877 10.4122 82.7313 10.5878 82.9312 10.8075C83.1311 11.0272 83.283 11.2863 83.3769 11.5681C83.4709 11.8499 83.505 12.1483 83.477 12.444C83.5065 12.7406 83.4736 13.0401 83.3803 13.3232C83.287 13.6063 83.1355 13.8667 82.9354 14.0877C82.7354 14.3087 82.4913 14.4853 82.2188 14.6061C81.9463 14.727 81.6516 14.7894 81.3535 14.7894C81.0554 14.7894 80.7607 14.727 80.4882 14.6061C80.2157 14.4853 79.9716 14.3087 79.7715 14.0877C79.5715 13.8667 79.4199 13.6063 79.3267 13.3232C79.2334 13.0401 79.2005 12.7406 79.23 12.444ZM82.563 12.444C82.563 11.468 82.125 10.897 81.355 10.897C80.583 10.897 80.148 11.468 80.148 12.444C80.148 13.428 80.583 13.994 81.355 13.994C82.125 13.994 82.563 13.424 82.563 12.444ZM84.67 10.195H85.525V10.91H85.591C85.7037 10.6531 85.8938 10.4377 86.1347 10.294C86.3756 10.1502 86.6554 10.0852 86.935 10.108C87.1541 10.0915 87.3741 10.1246 87.5788 10.2047C87.7834 10.2848 87.9674 10.4099 88.1171 10.5708C88.2668 10.7316 88.3784 10.9241 88.4437 11.1339C88.5089 11.3438 88.5261 11.5656 88.494 11.783V14.698H87.605V12.006C87.605 11.282 87.291 10.922 86.633 10.922C86.4843 10.9151 86.3358 10.9405 86.1978 10.9963C86.0598 11.0521 85.9354 11.1372 85.8333 11.2455C85.7313 11.3539 85.6538 11.483 85.6063 11.6241C85.5587 11.7652 85.5423 11.9149 85.558 12.063V14.698H84.669L84.67 10.195ZM93.515 9.074V10.215H94.491V10.964H93.515V13.279C93.515 13.751 93.709 13.958 94.152 13.958C94.2653 13.9575 94.3785 13.9505 94.491 13.937V14.677C94.3312 14.7058 94.1693 14.7212 94.007 14.723C93.019 14.723 92.626 14.375 92.626 13.507V10.964H91.911V10.215H92.626V9.074H93.515ZM95.705 8.437H96.585V10.918H96.655C96.7733 10.6587 96.9688 10.4421 97.2146 10.2979C97.4605 10.1537 97.7449 10.0887 98.029 10.112C98.2469 10.1002 98.4648 10.1366 98.667 10.2187C98.8693 10.3008 99.0509 10.4265 99.199 10.5869C99.347 10.7473 99.4578 10.9383 99.5235 11.1465C99.5892 11.3546 99.6082 11.5747 99.579 11.791V14.698H98.69V12.01C98.69 11.29 98.355 10.926 97.727 10.926C97.5742 10.9134 97.4205 10.9344 97.2767 10.9875C97.1328 11.0406 97.0024 11.1244 96.8943 11.2332C96.7863 11.342 96.7034 11.4731 96.6513 11.6173C96.5993 11.7615 96.5794 11.9153 96.593 12.068V14.698H95.705V8.437ZM104.761 13.482C104.64 13.8934 104.379 14.2493 104.022 14.4874C103.666 14.7256 103.237 14.8309 102.811 14.785C102.514 14.793 102.219 14.7363 101.946 14.6188C101.674 14.5013 101.43 14.3259 101.232 14.1046C101.034 13.8834 100.886 13.6216 100.8 13.3376C100.713 13.0536 100.689 12.7541 100.73 12.46C100.691 12.1652 100.715 11.8653 100.802 11.5807C100.888 11.2962 101.035 11.0335 101.232 10.8105C101.428 10.5875 101.671 10.4093 101.942 10.2882C102.214 10.167 102.509 10.1055 102.806 10.108C104.059 10.108 104.815 10.964 104.815 12.378V12.688H101.635V12.738C101.621 12.9033 101.642 13.0697 101.696 13.2265C101.75 13.3834 101.836 13.5271 101.949 13.6486C102.062 13.7701 102.2 13.8666 102.352 13.9319C102.505 13.9972 102.669 14.03 102.835 14.028C103.047 14.0531 103.262 14.0147 103.453 13.9175C103.643 13.8203 103.801 13.6687 103.905 13.482H104.761ZM101.635 12.031H103.91C103.921 11.8798 103.901 11.7278 103.85 11.585C103.799 11.4421 103.719 11.3115 103.614 11.2016C103.51 11.0916 103.383 11.0048 103.243 10.9467C103.103 10.8885 102.953 10.8604 102.801 10.864C102.647 10.8621 102.495 10.891 102.352 10.949C102.21 11.007 102.081 11.0929 101.972 11.2017C101.863 11.3104 101.777 11.4398 101.72 11.5823C101.662 11.7247 101.633 11.8773 101.635 12.031Z" fill="#1F1F1F"/>
</g>
<defs>
<clipPath id="clip0_28_2">
<rect width="119.664" height="40" fill="white"/>
</clipPath>
</defs>
</svg>
