<svg class="Footer_logo__2xPOi text-pure-white" x="0px" y="0px" width="100%" height="100%" viewBox="0 0 1701.4 267.4" fill="#ffffff" xmlns="http://www.w3.org/2000/svg"><path id="prefix___x23_0da8ffff_1_" d="M159.5.3c29.5-1.9 59.5 4 86 17.2 39.1 19.2 70.2 53.9 84.9 94.8 6.5 18.1 10 37.2 10 56.4V240c0 2.9.1 5.9-.6 8.7-1.6 7.2-6.7 13.5-13.5 16.6-4.7 2.2-10.1 2.5-15.1 1.7-10.9-2-19.3-12.2-19.4-23.2-.1-22.1 0-44.2 0-66.4.2-6.3.2-13-3.2-18.5-5.5-10.2-18.9-15.1-29.6-10.7-9.1 3.2-15.7 12.4-15.8 22.1-.1 22.5 0 44.9 0 67.3 0 4.2.2 8.5-1 12.5-2.3 7.9-8.9 14.3-16.8 16.5-10.4 2.9-22.3-1.7-27.6-11.3-3.6-5.8-3.3-12.8-3.2-19.2-.1-22.3.1-44.6-.1-66.9-.2-11.3-9.5-21.5-20.8-23-7.3-1.1-15 1.3-20.3 6.5-4.8 4.5-7.5 11-7.5 17.6v65c-.1 5.5.6 11.1-1.5 16.2-3.2 9.3-12.6 16.1-22.5 15.8-10.1.6-20-6.4-23.2-15.9-1.8-4.7-1.4-9.7-1.4-14.7 0-22.4.1-44.8 0-67.3-.1-11.1-8.7-21.2-19.6-23.2-9.8-2.1-20.7 2.9-25.7 11.8-2.1 3.7-3.2 8-3.2 12.2V243c.1 7.1-3.2 14.1-8.6 18.6-8.2 7.2-21.5 7.6-30.2 1-6.3-4.3-10-11.6-10-19.2v-73.7c.1-27.9 7.1-55.7 20.4-80.2 10.9-20 25.8-37.9 43.7-52.1 27-21.9 60.8-35 95.4-37.1z"></path><path d="M822.3 85.8h-36.9c1.3-25.9 6.7-49.2 30.4-63.9C839.3 7.3 865.2 4 892.1 6.2c14.6 1.2 28.8 4.3 42.2 10.5 23.5 10.8 35.1 29.3 35.1 55 .1 45.6 0 91.3 0 136.9 0 16.8 3.4 19.9 20.2 18.2 1.8-.2 3.6-.5 5.5-.8.2.9.4 1.6.4 2.3V256c-13.4 4.5-26.8 5.9-40.3 2.3-9.8-2.7-16.1-9.8-19.5-19.2-1.7-4.8-2.7-9.8-4.3-15.4-1.4 1.6-2.6 3.1-4 4.4-29.1 29.5-63.8 41.9-104.6 31.6-28.9-7.3-48.9-33.8-49.6-63.7-.2-9.6.6-19.4 2.9-28.7 5.3-21.6 20.6-34.6 40.1-43.3 13.7-6.2 28.3-8 43-9.8 17.2-2.2 34.4-4.3 51.6-6.7 11.7-1.6 17.6-7.8 19.4-19.6 3.7-23.4-6.7-39.2-29.6-44.8-13.6-3.3-27.5-3.9-41.3-1.3-20.4 3.7-31.8 15.2-35.8 35.5-.2 2.6-.6 5.3-1.2 8.5zM931 131.1c-17 9.2-33.5 11.4-50.1 13.9-14 2.2-28.2 4.2-41.6 8.6-18 5.9-26 20.7-24.5 40.5 1.3 16.5 12.6 29.8 30.3 32.7 27.5 4.6 51.9-3 71.1-23.4 5.6-5.9 10.1-14.5 11.3-22.5 2.5-15.9 2.4-32.2 3.5-49.8zM1456.3 178.7c-.9 4-1.4 7.4-2.4 10.6-16 48.4-48.1 69.3-87.2 73.6-67.8 7.5-106.5-36.9-116.5-84-7.9-37.4-6.8-74.6 9.6-109.8 15.5-33.2 40.5-55.1 77.7-61.6 44.4-7.8 107.5 14.1 118.1 83.7 2.7 17.9 3.3 36.2 5 55.1h-172.3c1.5 25.5 5.5 49.3 24.1 67.9 7.7 7.7 17.6 11.4 28.3 13.2 35 6.1 63.7-10.6 75.1-44.1 1.2-3.6 2.8-4.7 6.5-4.6 11.1.2 22.2 0 34 0zm-166.6-65.2h129c-1.4-14.9-4.1-28.9-11-41.9C1401 59 1391 50 1377.4 45.4c-44.6-15.3-90.7 20.3-87.7 68.1zM1549.1 254.8h-39.2V11.6h37.2v34.1c2.8-3.2 4.6-5.2 6.3-7.1 26.6-30.4 60.2-38.4 98.2-29 26.5 6.5 41.2 25.2 46.2 51.4 2.1 10.7 3.3 21.7 3.4 32.6.4 52.2.2 104.4.2 156.6 0 1.4-.2 2.9-.3 4.6H1661v-6.6c0-48.7.3-97.5-.2-146.2-.1-10.8-1.6-21.9-4.7-32.2-5.1-17.1-18.7-26.2-36.6-26.8-32.5-1.1-58.4 16.1-66.3 45.2-2.8 10.4-3.7 21.6-3.8 32.5-.4 42.3-.2 84.7-.3 127v7.1zM1033.4 11.6h37.8v103c2.4-2.3 3.8-3.5 5.2-4.8 30.9-31.5 61.9-63.1 92.7-94.7 2.6-2.7 5.2-3.9 9-3.9 14.5.2 29.1.1 45.1.1-2.2 2.3-3.4 3.7-4.7 5.1-27.2 27.3-54.3 54.6-81.7 81.8-3.1 3-3.2 5-1 8.6 29.7 47.3 59.2 94.6 88.8 142 1.1 1.7 2.1 3.4 3.5 5.9-2 .2-3.5.4-5 .4-13.5 0-27-.1-40.5.1-3.7.1-5.5-1.3-7.3-4.3-22.6-38.1-45.4-76.1-68.1-114.2-1-1.7-2.1-3.3-3.4-5.3-10.5 10.4-20.7 20.5-30.8 30.9-1.3 1.3-1.6 3.9-1.6 6-.1 26.7-.1 53.3-.1 80v6.9c-7.5 0-14.7.1-21.9 0-5.2-.1-12.1 1.3-15.1-1.4-2.6-2.4-1-9.6-1-14.7V18.9c.1-2.4.1-4.7.1-7.3zM597.9 11.3c-30.7 30.4-60.5 60.1-90.5 89.8 32.2 51.6 63.7 102.1 95.9 153.7-2.6.1-4.2.3-5.9.3-13.1 0-26.3-.1-39.4.1-3.8.1-5.9-1.3-7.8-4.5-22.6-38.1-45.4-76.1-68.1-114.2-.9-1.6-1.9-3.1-3.4-5.5-5.8 6-10.8 12.4-17.1 17.1-12.7 9.6-16.5 21.6-15.5 37.3 1.3 20.7.3 41.6.3 62.4v6.8h-37.5V11.5h37.3V113c.8.5 1.6 1.1 2.4 1.6 1-1.7 1.6-3.8 2.9-5.1 30.7-31.5 61.6-62.8 92.3-94.3 2.7-2.8 5.4-4.2 9.5-4.1 12.8.3 25.6.1 38.3.1 1.8.1 3.6.1 6.3.1zM672.8 51.6c19-27.8 39.2-51 76.7-44.3v41.6c-10 .7-19.8.4-29.1 2.3-23.1 4.8-40.9 25.9-44.4 51.3-.7 5-1 10.2-1 15.3-.1 43.4 0 86.9 0 130.3v6.7h-39.1V11.7h37c-.1 13-.1 25.8-.1 39.9z"></path></svg>