<?xml version="1.0" standalone="no"?>
<!DOCTYPE svg PUBLIC "-//W3C//DTD SVG 20010904//EN"
 "http://www.w3.org/TR/2001/REC-SVG-20010904/DTD/svg10.dtd">
<svg version="1.0" xmlns="http://www.w3.org/2000/svg"
 width="750.000000pt" height="750.000000pt" viewBox="0 0 750.000000 750.000000"
 preserveAspectRatio="xMidYMid meet">
<metadata>
Created by potrace 1.14, written by Peter Selinger 2001-2017
</metadata>
<g transform="translate(0.000000,750.000000) scale(0.100000,-0.100000)"
fill="#000000" stroke="none">
<path d="M3525 7103 c-1190 -78 -2254 -792 -2785 -1868 -164 -331 -257 -624
-310 -975 -140 -918 103 -1848 671 -2575 434 -555 1049 -971 1722 -1165 1028
-296 2149 -78 2992 581 555 434 971 1049 1165 1722 296 1028 78 2149 -581
2992 -482 617 -1182 1057 -1939 1219 -292 62 -643 88 -935 69z m1305 -1790
c73 -274 135 -506 138 -515 4 -17 28 -18 323 -18 176 0 319 -2 319 -5 0 -3
-97 -173 -216 -377 l-217 -373 31 -120 c37 -141 580 -2162 588 -2187 5 -17
-15 -18 -315 -18 l-320 0 -10 38 c-20 74 -311 1161 -358 1334 -26 98 -51 178
-54 178 -4 0 -208 -349 -454 -775 l-448 -775 -354 0 -354 0 12 23 c26 49 615
1072 977 1697 212 365 387 674 389 685 3 15 -189 760 -213 825 -7 19 -7 18
-334 -550 -150 -261 -470 -815 -710 -1230 -241 -415 -527 -910 -637 -1100
l-200 -345 -357 -3 -358 -2 20 32 c11 18 253 436 537 928 284 492 810 1402
1168 2023 l652 1127 311 0 311 0 133 -497z"/>
</g>
</svg>
