<?xml version="1.0" standalone="no"?>
<!DOCTYPE svg PUBLIC "-//W3C//DTD SVG 20010904//EN"
 "http://www.w3.org/TR/2001/REC-SVG-20010904/DTD/svg10.dtd">
<svg version="1.0" xmlns="http://www.w3.org/2000/svg"
 width="260.000000pt" height="260.000000pt" viewBox="0 0 260.000000 260.000000"
 preserveAspectRatio="xMidYMid meet">
<metadata>
Created by potrace 1.14, written by Peter Selinger 2001-2017
</metadata>
<g transform="translate(0.000000,260.000000) scale(0.100000,-0.100000)"
fill="#000000" stroke="none">
<path d="M0 1300 l0 -1300 1300 0 1300 0 0 1300 0 1300 -1300 0 -1300 0 0
-1300z m947 572 c26 -32 194 -245 373 -473 l325 -416 3 474 2 473 110 0 110 0
0 -685 0 -685 -84 0 c-68 0 -88 4 -108 20 -14 11 -178 214 -364 451 -186 238
-347 443 -358 456 l-21 24 3 -475 3 -476 -116 0 -115 0 0 685 0 685 95 0 94 0
48 -58z"/>
</g>
</svg>
