<svg width="120" height="35" viewBox="0 0 120 35" fill="none" xmlns="http://www.w3.org/2000/svg">
<path d="M35.4088 17.3311C35.4088 8.62712 28.3528 1.57112 19.6488 1.57112C10.9448 1.57112 3.88882 8.62712 3.88882 17.3311V17.7148C3.88882 26.4188 10.9448 33.4748 19.6488 33.4748C28.3528 33.4748 35.4088 26.4188 35.4088 17.7148V17.3311Z" fill="#245EC7"/>
<path d="M25.3749 12.7424L25.2144 12.1294L24.8534 12.7424L22.674 16.6109L20.822 19.8667L19.2139 22.7015L18.2884 24.3343H15.6677L17.8605 20.4658L18.3808 19.5455L18.0918 18.4634L17.2628 15.2896L16.5943 12.7424L16.4338 12.1294L16.0728 12.7424L13.8934 16.6109L11.7006 20.4658L9.50781 24.3343H6.88715L9.07994 20.4658L11.2594 16.6109L13.4522 12.7424L15.5915 8.9692L15.645 8.88747H17.9314L18.0383 9.29611L18.8673 12.4563L18.9475 12.7424L19.6963 15.6165L19.9637 16.6109L19.988 16.7028L20.04 16.6109L22.2328 12.7424L24.3721 8.9692L24.4256 8.88747H26.712L26.8189 9.29611L31.2164 24.3343H28.5958L25.3749 12.7424Z" fill="white"/>
<path d="M45.176 25.0191L48.152 8.89112C48.2 8.69912 48.392 8.53112 48.584 8.53112H48.968C49.112 8.53112 49.328 8.65112 49.376 8.79512L54.392 21.0591H54.488L59.48 8.79512C59.528 8.65112 59.72 8.53112 59.888 8.53112H60.272C60.464 8.53112 60.656 8.69912 60.704 8.89112L63.656 25.0191C63.728 25.3551 63.56 25.5711 63.224 25.5711H61.664C61.448 25.5711 61.256 25.4031 61.208 25.2351L59.432 14.5071H59.36L55.04 25.5471C54.992 25.6911 54.848 25.8111 54.632 25.8111H54.2C54.008 25.8111 53.84 25.6911 53.792 25.5471L49.448 14.5071H49.352L47.624 25.2351C47.6 25.4031 47.384 25.5711 47.192 25.5711H45.632C45.296 25.5711 45.128 25.3551 45.176 25.0191ZM68.2242 25.2351L64.0482 16.5951C63.9042 16.2831 64.0962 15.9711 64.4562 15.9711H66.0402C66.1842 15.9711 66.3762 16.0911 66.4482 16.2351L69.4242 22.6191H69.4482L72.3282 16.2351C72.4242 16.0191 72.6162 15.9711 72.8322 15.9711H74.2002C74.5842 15.9711 74.7762 16.2831 74.6082 16.5951L67.2642 32.4831C67.1922 32.6271 67.0482 32.7711 66.8562 32.7711H65.4162C65.0562 32.7711 64.8402 32.4591 65.0082 32.1231L68.2242 25.2351ZM79.0206 25.5711C78.6606 25.5711 78.4686 25.2591 78.6126 24.9471L85.9806 8.79512C86.0526 8.65112 86.2686 8.53112 86.3886 8.53112H86.6286C86.7486 8.53112 86.9646 8.65112 87.0366 8.79512L94.3566 24.9471C94.5006 25.2591 94.3086 25.5711 93.9486 25.5711H92.4366C92.1486 25.5711 91.9806 25.4271 91.8846 25.2111L90.3966 21.9231H82.5486C82.0686 23.0271 81.5646 24.1071 81.0846 25.2111C81.0126 25.3791 80.8206 25.5711 80.5326 25.5711H79.0206ZM83.4846 19.8591H89.4846L86.5326 13.2831H86.4126L83.4846 19.8591ZM95.3248 25.1151V9.22712C95.3248 8.98712 95.5408 8.77112 95.7808 8.77112H97.1488C97.3888 8.77112 97.6048 8.98712 97.6048 9.22712V25.1151C97.6048 25.3551 97.3888 25.5711 97.1488 25.5711H95.7808C95.5408 25.5711 95.3248 25.3551 95.3248 25.1151ZM99.197 24.9951C99.197 23.1471 100.901 22.2591 100.901 22.2591C100.901 22.2591 100.157 21.3711 100.157 19.9311C100.157 17.6991 101.837 15.7311 104.285 15.7311H108.485C108.749 15.7311 108.941 15.9231 108.941 16.1871V16.7871C108.941 16.9551 108.845 17.1711 108.677 17.1951L107.357 17.5551C107.357 17.5551 108.389 18.3231 108.389 20.1231C108.389 22.1631 106.805 24.0351 104.309 24.0351C103.085 24.0351 102.413 23.6511 102.221 23.6511C102.053 23.6511 101.237 24.0591 101.237 24.8271C101.237 25.3791 101.669 25.8111 102.389 25.8111H105.653C107.741 25.8111 109.421 26.9391 109.421 29.0271C109.421 31.1391 107.501 33.0111 104.309 33.0111C100.925 33.0111 99.557 31.2831 99.557 29.7231C99.557 28.2831 100.733 27.6111 100.973 27.4671V27.3951C100.469 27.2511 99.197 26.6031 99.197 24.9951ZM104.333 22.1871C105.533 22.1871 106.349 21.2751 106.349 19.9791C106.349 18.6831 105.533 17.7711 104.333 17.7711C103.109 17.7711 102.221 18.6831 102.221 19.9791C102.221 21.2751 103.109 22.1871 104.333 22.1871ZM101.789 29.3391C101.789 30.3231 102.821 31.0431 104.285 31.0431C105.749 31.0431 107.021 30.2991 107.021 29.1471C107.021 28.7631 106.781 27.7791 105.221 27.7791C104.525 27.7791 103.805 27.7791 103.109 27.8271C102.965 27.8751 101.789 28.2591 101.789 29.3391ZM109.909 20.7471C109.909 18.0351 112.069 15.7311 114.757 15.7311C117.445 15.7311 119.605 18.0351 119.605 20.7471C119.605 23.5071 117.445 25.8111 114.757 25.8111C112.069 25.8111 109.909 23.5071 109.909 20.7471ZM112.045 20.7471C112.045 22.4031 113.245 23.7471 114.757 23.7471C116.269 23.7471 117.469 22.4031 117.469 20.7471C117.469 19.1391 116.269 17.8191 114.757 17.8191C113.245 17.8191 112.045 19.1391 112.045 20.7471Z" fill="#245EC7"/>
</svg>
